# xmcd CD database file
#
# Track frame offsets:
#	150
#	18207
#	31435
#	48647
#	56777
#	76355
#	76800
#	77327
#	78947
#	80667
#	82327
#	88417
#	90050
#	91727
#	93417
#	99495
#	102892
#	104582
#	106855
#	109332
#	111752
#	114647
#	117315
#	118962
#	120630
#	121487
#	123387
#	126747
#	128322
#	131345
#	132192
#	133105
#	138267
#	142710
#	149360
#	150822
#	152642
#	156640
#	160662
#	163367
#	165622
#	171892
#	172762
#	174897
#	176297
#	177852
#	180570
#	182172
#	183665
#	185655
#	189075
#
# Disc length: 2540 seconds
#
# Revision: 0
# Processed by: cddbd v1.5.2PL0 Copyright (c) Steve Scherf et al.
# Submitted via: CDex 1.70beta2
#
DISCID=a309ea33
DTITLE=Joachim Vogel - Jazz Guitar Secrets
DYEAR=1996
DGENRE=Jazz
TTITLE0=Tool 12 .... Abb. 19: Blattspiel im Herbst
TTITLE1=Tool 15 .... Abb. 37: Talking Swing
TTITLE2=Tool 19 .... Abb. 60: Britz Süd
TTITLE3=Tool 21 .... Abb. 76: Blues for Axel
TTITLE4=Tool 24 .... Abb. 103: Hip 2 Bop
TTITLE5=Willkommen
TTITLE6=Stimmton A-Saite
TTITLE7=Tool 11 .... Abb. 2
TTITLE8=Tool 11 .... Abb. 3
TTITLE9=Tool 11 .... Abb. 5
TTITLE10=Tool 11 .... Abb. 8
TTITLE11=Tool 12 .... Abb. 10
TTITLE12=Tool 12 .... Abb. 14
TTITLE13=Tool 12 .... Abb. 16
TTITLE14=Tool 12 .... Abb. 18
TTITLE15=Tool 13 .... Abb. 22
TTITLE16=Tool 13 .... Abb. 24
TTITLE17=Tool 14 .... Abb. 28
TTITLE18=Tool 14 .... Abb. 31
TTITLE19=Tool 15 .... Abb. 36
TTITLE20=Tool 16 .... Abb. 41
TTITLE21=Tool 17 .... ohne Abb.
TTITLE22=Tool 17 .... Abb. 42
TTITLE23=Tool 17 .... Abb. 43
TTITLE24=Tool 17 .... Abb. 44
TTITLE25=Tool 17 .... Abb. 45
TTITLE26=Tool 17 .... Abb. 46
TTITLE27=Tool 17 .... Abb. 47
TTITLE28=Tool 18 .... Abb. 51
TTITLE29=Tool 18 .... Abb. 52
TTITLE30=Tool 18 .... Abb. 53
TTITLE31=Tool 19 .... Abb. 59
TTITLE32=Tool 20 .... Abb. 64
TTITLE33=Tool 21 .... Abb. 67
TTITLE34=Tool 21 .... Abb. 69
TTITLE35=Tool 21 .... Abb. 71
TTITLE36=Tool 21 .... Abb. 74
TTITLE37=Tool 21 .... Abb. 75
TTITLE38=Tool 22 .... Abb. 80
TTITLE39=Tool 23 .... Abb. 84
TTITLE40=Tool 23 .... Abb. 85
TTITLE41=Tool 24 .... Abb. 86
TTITLE42=Tool 24 .... Abb. 88
TTITLE43=Tool 24 .... Abb. 90
TTITLE44=Tool 24 .... Abb. 92
TTITLE45=Tool 24 .... Abb. 94
TTITLE46=Tool 24 .... Abb. 95
TTITLE47=Tool 24 .... Abb. 96
TTITLE48=Tool 24 .... Abb. 98
TTITLE49=Tool 24 .... Abb. 99
TTITLE50=Tool 24 .... Abb. 102
EXTD=YEAR: 1996
EXTT0=
EXTT1=
EXTT2=
EXTT3=
EXTT4=
EXTT5=
EXTT6=
EXTT7=
EXTT8=
EXTT9=
EXTT10=
EXTT11=
EXTT12=
EXTT13=
EXTT14=
EXTT15=
EXTT16=
EXTT17=
EXTT18=
EXTT19=
EXTT20=
EXTT21=
EXTT22=
EXTT23=
EXTT24=
EXTT25=
EXTT26=
EXTT27=
EXTT28=
EXTT29=
EXTT30=
EXTT31=
EXTT32=
EXTT33=
EXTT34=
EXTT35=
EXTT36=
EXTT37=
EXTT38=
EXTT39=
EXTT40=
EXTT41=
EXTT42=
EXTT43=
EXTT44=
EXTT45=
EXTT46=
EXTT47=
EXTT48=
EXTT49=
EXTT50=
PLAYORDER=
